<svg width="18" height="18" viewBox="0 0 18 18" fill="none" xmlns="http://www.w3.org/2000/svg">
<path d="M9.70236 14.0003L17.7124 5.99008C17.8979 5.80481 18 5.5575 18 5.29379C18 5.03009 17.8979 4.78277 17.7124 4.59751L17.1227 4.00761C16.7384 3.62376 16.1138 3.62376 15.7301 4.00761L9.00373 10.734L2.26988 4.00014C2.08447 3.81488 1.8373 3.71259 1.57374 3.71259C1.30989 3.71259 1.06272 3.81488 0.877163 4.00014L0.287558 4.59004C0.102144 4.77545 0 5.02262 0 5.28633C0 5.55003 0.102144 5.79735 0.287558 5.98262L8.30496 14.0003C8.49096 14.186 8.73929 14.288 9.00329 14.2874C9.26831 14.288 9.51651 14.186 9.70236 14.0003Z" fill="#2EA9C5"/>
</svg>
