<svg width="55" height="55" viewBox="0 0 55 55" fill="none" xmlns="http://www.w3.org/2000/svg">
<g filter="url(#filter0_d)">
<circle cx="27.5" cy="26.5" r="17.5" fill="white"/>
<path d="M27.5 9.00098C17.836 9.00098 10 16.8355 10 26.5002C10 36.1649 17.8353 43.9994 27.5 43.9994C37.1655 43.9994 45 36.1649 45 26.5002C45 16.8355 37.1655 9.00098 27.5 9.00098ZM27.5 14.2335C30.6978 14.2335 33.289 16.8255 33.289 20.0217C33.289 23.2187 30.6978 25.8099 27.5 25.8099C24.3038 25.8099 21.7125 23.2187 21.7125 20.0217C21.7125 16.8255 24.3038 14.2335 27.5 14.2335ZM27.4962 39.4242C24.3069 39.4242 21.3858 38.2627 19.1328 36.3402C18.584 35.8721 18.2673 35.1856 18.2673 34.4654C18.2673 31.2238 20.8908 28.6295 24.1331 28.6295H30.8684C34.1115 28.6295 36.725 31.2238 36.725 34.4654C36.725 35.1864 36.4099 35.8713 35.8603 36.3394C33.608 38.2627 30.6862 39.4242 27.4962 39.4242Z" fill="#2EA9C5"/>
</g>
<defs>
<filter id="filter0_d" x="0" y="0" width="55" height="55" filterUnits="userSpaceOnUse" color-interpolation-filters="sRGB">
<feFlood flood-opacity="0" result="BackgroundImageFix"/>
<feColorMatrix in="SourceAlpha" type="matrix" values="0 0 0 0 0 0 0 0 0 0 0 0 0 0 0 0 0 0 127 0"/>
<feOffset dy="1"/>
<feGaussianBlur stdDeviation="5"/>
<feColorMatrix type="matrix" values="0 0 0 0 0 0 0 0 0 0 0 0 0 0 0 0 0 0 0.2 0"/>
<feBlend mode="normal" in2="BackgroundImageFix" result="effect1_dropShadow"/>
<feBlend mode="normal" in="SourceGraphic" in2="effect1_dropShadow" result="shape"/>
</filter>
</defs>
</svg>
