<svg xmlns="http://www.w3.org/2000/svg" viewBox="0 0 469.33 512"><defs><style>.cls-1{fill:#2ea9c5;}</style></defs><g id="圖層_2" data-name="圖層 2"><g id="bold"><path class="cls-1" d="M453.33,181.33H16a16,16,0,0,1-16-16V122.67A58.71,58.71,0,0,1,58.67,64h352a58.71,58.71,0,0,1,58.66,58.67v42.66A16,16,0,0,1,453.33,181.33Z"/><path class="cls-1" d="M42.67,202.67V453.33A58.71,58.71,0,0,0,101.33,512H368a58.72,58.72,0,0,0,58.67-58.67V202.67Zm122.66,224a21.33,21.33,0,0,1-42.66,0v-160a21.33,21.33,0,1,1,42.66,0Zm90.67,0a21.34,21.34,0,0,1-42.67,0v-160a21.34,21.34,0,1,1,42.67,0Zm90.67,0a21.34,21.34,0,0,1-42.67,0v-160a21.34,21.34,0,1,1,42.67,0Z"/><path class="cls-1" d="M320,42.67V37.33A37.38,37.38,0,0,0,282.67,0h-96a37.38,37.38,0,0,0-37.34,37.33v5.34Z"/></g></g></svg>