<svg width="30" height="30" viewBox="0 0 30 30" fill="none" xmlns="http://www.w3.org/2000/svg">
<g clip-path="url(#clip0)">
<path d="M11.9508 0H1.57106C0.703386 0 0 0.703386 0 1.57106V11.9508C0 12.8185 0.703386 13.5219 1.57106 13.5219H11.9508C12.8185 13.5219 13.5219 12.8185 13.5219 11.9508V1.57106C13.5219 0.703386 12.8185 0 11.9508 0Z" fill="#2EA9C5"/>
<path d="M28.4289 0H18.0491C17.1815 0 16.4781 0.703386 16.4781 1.57106V11.9508C16.4781 12.8185 17.1815 13.5219 18.0491 13.5219H28.4289C29.2966 13.5219 30 12.8185 30 11.9508V1.57106C30 0.703386 29.2966 0 28.4289 0Z" fill="#2EA9C5"/>
<path d="M11.9508 16.46H1.57106C0.703386 16.46 0 17.1633 0 18.031V28.4108C0 29.2785 0.703386 29.9818 1.57106 29.9818H11.9508C12.8185 29.9818 13.5219 29.2785 13.5219 28.4108V18.031C13.5219 17.1633 12.8185 16.46 11.9508 16.46Z" fill="#2EA9C5"/>
<path d="M28.4289 16.46H18.0491C17.1815 16.46 16.4781 17.1633 16.4781 18.031V28.4108C16.4781 29.2785 17.1815 29.9818 18.0491 29.9818H28.4289C29.2966 29.9818 30 29.2785 30 28.4108V18.031C30 17.1633 29.2966 16.46 28.4289 16.46Z" fill="#2EA9C5"/>
</g>
<defs>
<clipPath id="clip0">
<rect width="30" height="29.982" fill="white"/>
</clipPath>
</defs>
</svg>
