<svg width="20" height="14" viewBox="0 0 20 14" fill="none" xmlns="http://www.w3.org/2000/svg">
<path d="M10 4.09082C8.49544 4.09082 7.27273 5.31353 7.27273 6.81809C7.27273 8.32265 8.49544 9.54536 10 9.54536C11.5046 9.54536 12.7273 8.32265 12.7273 6.81809C12.7273 5.31353 11.5045 4.09082 10 4.09082Z" fill="#BEBEBE"/>
<path d="M10 0C5.45454 0 1.57274 2.82724 0 6.81817C1.57274 10.8091 5.45454 13.6363 10 13.6363C14.55 13.6363 18.4273 10.8091 20 6.81817C18.4273 2.82724 14.55 0 10 0ZM10 11.3636C7.49091 11.3636 5.45454 9.32722 5.45454 6.81813C5.45454 4.30904 7.49091 2.27271 10 2.27271C12.5091 2.27271 14.5455 4.30908 14.5455 6.81817C14.5455 9.32726 12.5091 11.3636 10 11.3636Z" fill="#BEBEBE"/>
</svg>
