<svg width="23" height="23" viewBox="0 0 23 23" fill="none" xmlns="http://www.w3.org/2000/svg">
<path d="M11.5 0.000999451C5.14939 0.000999451 0 5.14938 0 11.5005C0 17.8516 5.14888 23 11.5 23C17.8516 23 23 17.8516 23 11.5005C23 5.14938 17.8516 0.000999451 11.5 0.000999451ZM11.5 3.43948C13.6014 3.43948 15.3042 5.14281 15.3042 7.24318C15.3042 9.34405 13.6014 11.0469 11.5 11.0469C9.39963 11.0469 7.69681 9.34405 7.69681 7.24318C7.69681 5.14281 9.39963 3.43948 11.5 3.43948ZM11.4975 19.9934C9.40165 19.9934 7.48212 19.2301 6.00156 17.9668C5.64089 17.6592 5.43277 17.2081 5.43277 16.7347C5.43277 14.6046 7.15681 12.8997 9.28749 12.8997H13.7135C15.8447 12.8997 17.5622 14.6046 17.5622 16.7347C17.5622 17.2086 17.3551 17.6586 16.9939 17.9663C15.5138 19.2301 13.5938 19.9934 11.4975 19.9934Z" fill="#BEBEBE"/>
</svg>
