<svg width="16" height="16" viewBox="0 0 16 16" fill="none" xmlns="http://www.w3.org/2000/svg">
<circle cx="8" cy="8" r="8" transform="rotate(-90 8 8)" fill="#4D4D4D"/>
<g clip-path="url(#clip0)">
<path d="M9.95578 7.92781L7.1077 5.07978C7.04183 5.01386 6.9539 4.97754 6.86013 4.97754C6.76637 4.97754 6.67844 5.01386 6.61257 5.07978L6.40282 5.28947C6.26634 5.42611 6.26634 5.64818 6.40282 5.78461L8.79443 8.17621L6.40017 10.5705C6.3343 10.6364 6.29793 10.7243 6.29793 10.818C6.29793 10.9118 6.3343 10.9997 6.40017 11.0657L6.60991 11.2753C6.67584 11.3412 6.76372 11.3775 6.85748 11.3775C6.95124 11.3775 7.03918 11.3412 7.10505 11.2753L9.95578 8.42467C10.0218 8.35853 10.0581 8.27023 10.0579 8.17637C10.0581 8.08214 10.0218 7.99389 9.95578 7.92781Z" fill="white"/>
</g>
<defs>
<clipPath id="clip0">
<rect width="6.4" height="6.4" fill="white" transform="translate(4.97778 4.97754)"/>
</clipPath>
</defs>
</svg>
