<svg xmlns="http://www.w3.org/2000/svg" viewBox="0 0 459.9 412.48"><defs><style>.cls-1{fill:#bebebe;}</style></defs><g id="圖層_2" data-name="圖層 2"><g id="Capa_1" data-name="Capa 1"><path class="cls-1" d="M123.46,144.57H170V282.64A25.36,25.36,0,0,0,195.36,308h69.2a25.35,25.35,0,0,0,25.35-25.35V144.57h46.53a19,19,0,0,0,13.46-32.51L243.41,5.57a19.07,19.07,0,0,0-26.94,0L110,112.06a19,19,0,0,0,13.45,32.51Z"/><path class="cls-1" d="M437,196.32a22.86,22.86,0,0,0-22.86,22.86V314.8a52,52,0,0,1-52,51.94H97.68a52,52,0,0,1-52-51.94V219.18a22.87,22.87,0,0,0-45.73,0V314.8a97.79,97.79,0,0,0,97.68,97.68H362.22A97.79,97.79,0,0,0,459.9,314.8V219.18A22.85,22.85,0,0,0,437,196.32Z"/></g></g></svg>