<svg width="25" height="25" viewBox="0 0 25 25" fill="none" xmlns="http://www.w3.org/2000/svg">
<path d="M20.1467 16.8467L16.5017 16.1167C16.115 16.04 15.8333 15.6967 15.8333 15.3V14.4633C16.0733 14.13 16.2983 13.685 16.5317 13.22C16.71 12.8683 16.9783 12.3383 17.0983 12.2133C17.805 11.5217 18.5583 10.6633 18.7883 9.545C18.9967 8.53167 18.7883 8.005 18.5467 7.58833C18.5467 6.77333 18.5467 5.28167 18.2633 4.20667C18.235 2.90833 17.9967 2.175 17.3983 1.52167C16.975 1.065 16.3517 0.958333 15.8517 0.873333C15.6533 0.84 15.3817 0.793333 15.2867 0.741667C14.4217 0.263333 13.5433 0.0266667 12.4683 0C10.2683 0.0833333 7.56833 1.47833 6.665 3.98667C6.39 4.74833 6.41667 5.99833 6.43667 7.00333L6.41333 7.58833C6.20167 8.005 5.99333 8.53167 6.20333 9.54333C6.43333 10.6667 7.18667 11.5233 7.89 12.2117C8.01167 12.3383 8.28333 12.8717 8.46333 13.2233C8.7 13.6867 8.92667 14.1317 9.16667 14.465V15.3C9.16667 15.6967 8.885 16.04 8.49667 16.1167L4.85167 16.8467C2.52333 17.3117 0.833332 19.3733 0.833332 21.7483V23.3333C0.833332 24.2517 1.58167 25 2.5 25H22.5C23.4183 25 24.1667 24.2517 24.1667 23.3333V21.7483C24.1667 19.3733 22.4767 17.3117 20.1467 16.8467Z" fill="white"/>
</svg>
