<svg width="15" height="15" viewBox="0 0 15 15" fill="none" xmlns="http://www.w3.org/2000/svg">
<path d="M7.5 0C3.36433 0 0 3.36433 0 7.5C0 11.6357 3.36433 15 7.5 15C11.6357 15 15 11.6357 15 7.5C15 3.36433 11.6357 0 7.5 0ZM10.2619 9.37809C10.5062 9.62254 10.5062 10.0175 10.2619 10.2619C10.14 10.3838 9.98005 10.445 9.81995 10.445C9.65996 10.445 9.49997 10.3838 9.37809 10.2619L7.5 8.38371L5.62191 10.2619C5.50003 10.3838 5.34004 10.445 5.18005 10.445C5.01995 10.445 4.85996 10.3838 4.73808 10.2619C4.49375 10.0175 4.49375 9.62254 4.73808 9.37809L6.61629 7.5L4.73808 5.62191C4.49375 5.37746 4.49375 4.98253 4.73808 4.73808C4.98253 4.49375 5.37746 4.49375 5.62191 4.73808L7.5 6.61629L9.37809 4.73808C9.62254 4.49375 10.0175 4.49375 10.2619 4.73808C10.5062 4.98253 10.5062 5.37746 10.2619 5.62191L8.38371 7.5L10.2619 9.37809Z" fill="white"/>
</svg>
