<svg width="25" height="25" viewBox="0 0 25 25" fill="none" xmlns="http://www.w3.org/2000/svg">
<path d="M12.5 13.9648C12.9045 13.9648 13.2324 13.6369 13.2324 13.2324C13.2324 12.8279 12.9045 12.5 12.5 12.5C12.0955 12.5 11.7676 12.8279 11.7676 13.2324C11.7676 13.6369 12.0955 13.9648 12.5 13.9648Z" fill="white"/>
<path d="M12.5 0C5.61729 0 0 5.61763 0 12.5C0 19.3829 5.61763 25 12.5 25C19.3828 25 25 19.3824 25 12.5C25 5.61729 19.3824 0 12.5 0ZM12.5 2.97852C17.2521 2.97852 21.2021 6.47793 21.9088 11.0352H19.3688C17.7584 11.0352 16.2283 10.3889 15.1709 9.26216C13.7256 7.72183 11.2746 7.72134 9.8291 9.26211C8.77173 10.3889 7.24165 11.0352 5.63115 11.0352H3.09121C3.7979 6.47793 7.7479 2.97852 12.5 2.97852ZM12.5 15.4297C11.2885 15.4297 10.3027 14.444 10.3027 13.2324C10.3027 12.0208 11.2885 11.0352 12.5 11.0352C13.7116 11.0352 14.6973 12.0208 14.6973 13.2324C14.6973 14.444 13.7116 15.4297 12.5 15.4297ZM3.63379 15.9715C4.47217 15.6426 5.07754 15.4297 5.9082 15.4297C8.57852 15.4297 10.6552 17.8093 10.253 20.4829H10.2513C10.1915 20.8921 10.0739 21.2887 9.90435 21.6619C7.03525 20.8479 4.71343 18.7194 3.63379 15.9715ZM15.0962 21.6617C14.922 21.2786 14.807 20.8821 14.7487 20.4829H14.747C14.2783 17.3674 17.1543 14.7968 20.1354 15.5544C20.4497 15.6343 20.8429 15.7663 21.3662 15.9716C20.2866 18.7192 17.965 20.8476 15.0962 21.6617Z" fill="white"/>
</svg>
