<svg width="18" height="18" viewBox="0 0 18 18" fill="none" xmlns="http://www.w3.org/2000/svg">
<path d="M9 0C4.0372 0 0 4.0372 0 9C0 13.9628 4.0372 18 9 18C13.9628 18 18 13.9628 18 9C18 4.0372 13.9628 0 9 0ZM13.2803 13.6552C13.134 13.8014 12.942 13.875 12.75 13.875C12.5581 13.875 12.3659 13.8014 12.2198 13.6552L8.46977 9.90527C8.32874 9.76506 8.25005 9.57445 8.25005 9.37505V4.5C8.25005 4.08527 8.58595 3.75005 9 3.75005C9.41405 3.75005 9.74995 4.08527 9.74995 4.5V9.06454L13.2803 12.5947C13.5735 12.8881 13.5735 13.362 13.2803 13.6552V13.6552Z" fill="#AEAEAE"/>
</svg>
