<svg width="20" height="20" viewBox="0 0 20 20" fill="none" xmlns="http://www.w3.org/2000/svg">
<g clip-path="url(#clip0)">
<path d="M11.6625 14.2783L10 15.4045L8.33746 14.2783L6.37933 14.5667V20.0003L10 18.2452L13.6207 20.0003V14.5667L11.6625 14.2783Z" fill="#FFCB14"/>
<path d="M9.99996 3.74902C8.2107 3.74902 6.755 5.20473 6.755 6.99398C6.755 8.78324 8.2107 10.2389 9.99996 10.2389C11.7892 10.2389 13.2449 8.78324 13.2449 6.99398C13.2449 5.20473 11.7892 3.74902 9.99996 3.74902Z" fill="#FFCB14"/>
<path d="M16.2127 6.99418L16.8196 5.43793L15.5975 4.29977L15.4661 2.635L13.8713 2.13863L13.0345 0.693125L11.3824 0.936445L10 0L8.61755 0.936445L6.96548 0.693125L6.12864 2.13863L4.53391 2.635L4.40251 4.29977L3.18036 5.43793L3.78727 6.99418L3.18036 8.55043L4.40251 9.68859L4.53391 11.3534L6.12864 11.8497L6.96548 13.2952L8.61759 13.0519L10 13.9884L11.3825 13.0519L13.0345 13.2952L13.8714 11.8497L15.4661 11.3534L15.5975 9.68859L16.8197 8.55043L16.2127 6.99418ZM10 11.4113C7.56438 11.4113 5.58286 9.4298 5.58286 6.99418C5.58286 4.55855 7.56438 2.57703 10 2.57703C12.4356 2.57703 14.4172 4.55855 14.4172 6.99418C14.4172 9.4298 12.4356 11.4113 10 11.4113Z" fill="#FFCB14"/>
</g>
<defs>
<clipPath id="clip0">
<rect width="20" height="20" fill="white"/>
</clipPath>
</defs>
</svg>
