<svg width="6" height="10" viewBox="0 0 6 10" fill="none" xmlns="http://www.w3.org/2000/svg">
<path d="M5.0271 4.93395L1.17004 0.997753C1.08083 0.90664 0.961744 0.856445 0.834766 0.856445C0.707787 0.856445 0.588701 0.90664 0.499491 0.997753L0.215445 1.28756C0.0306147 1.4764 0.0306147 1.78333 0.215445 1.97188L3.45432 5.27726L0.211852 8.58632C0.122642 8.67743 0.0733871 8.79889 0.0733871 8.9284C0.0733871 9.05806 0.122642 9.17952 0.211852 9.27071L0.495898 9.56044C0.585177 9.65156 0.704193 9.70175 0.831172 9.70175C0.958151 9.70175 1.07724 9.65156 1.16645 9.56044L5.0271 5.62065C5.11652 5.52925 5.16564 5.40721 5.16536 5.27748C5.16564 5.14725 5.11652 5.02528 5.0271 4.93395Z" fill="white"/>
</svg>
