<svg width="25" height="26" viewBox="0 0 25 26" fill="none" xmlns="http://www.w3.org/2000/svg">
<path d="M24.3444 18.3861L20.8483 14.8899C19.5996 13.6413 17.477 14.1408 16.9775 15.764C16.6029 16.8878 15.3543 17.5121 14.2305 17.2623C11.7333 16.638 8.36196 13.3916 7.73765 10.7694C7.36306 9.64562 8.11224 8.39699 9.236 8.02245C10.8592 7.523 11.3587 5.40033 10.11 4.1517L6.61388 0.655531C5.61497 -0.21851 4.11662 -0.21851 3.24258 0.655531L0.870179 3.02793C-1.50222 5.52519 1.11991 12.1429 6.98847 18.0115C12.857 23.8801 19.4748 26.6271 21.972 24.1298L24.3444 21.7574C25.2185 20.7585 25.2185 19.2601 24.3444 18.3861Z" fill="white"/>
</svg>
