<svg width="10" height="10" viewBox="0 0 10 10" fill="none" xmlns="http://www.w3.org/2000/svg">
<path d="M5.3902 7.7779L9.84025 3.32777C9.94325 3.22485 10 3.08745 10 2.94095C10 2.79445 9.94325 2.65705 9.84025 2.55412L9.51261 2.2264C9.29911 2.01315 8.95212 2.01315 8.73895 2.2264L5.00207 5.96328L1.26105 2.22225C1.15804 2.11933 1.02072 2.0625 0.874302 2.0625C0.727717 2.0625 0.590401 2.11933 0.487312 2.22225L0.159754 2.54998C0.0567474 2.65298 0 2.7903 0 2.9368C0 3.0833 0.0567474 3.2207 0.159754 3.32363L4.61386 7.7779C4.7172 7.88107 4.85516 7.93774 5.00183 7.93741C5.14906 7.93774 5.28695 7.88107 5.3902 7.7779Z" fill="#4D4D4D"/>
</svg>
