<svg width="30" height="27" viewBox="0 0 30 27" fill="none" xmlns="http://www.w3.org/2000/svg">
<g clip-path="url(#clip0)">
<path d="M22.086 26.8379H19.638C19.3993 26.8379 19.1704 26.7431 19.0016 26.5743C18.8329 26.4056 18.738 26.1766 18.738 25.938V1.64995C18.7331 1.3159 18.8302 0.988295 19.0161 0.710763C19.2021 0.43323 19.4682 0.218943 19.779 0.0964421C20.0898 -0.0260586 20.4306 -0.050959 20.7559 0.0250574C21.0812 0.101074 21.3757 0.274399 21.6 0.521948L29.754 9.25795C29.8357 9.34436 29.8994 9.44609 29.9416 9.55727C29.9837 9.66845 30.0034 9.78687 29.9995 9.9057C29.9955 10.0245 29.9681 10.1414 29.9188 10.2496C29.8695 10.3578 29.7992 10.4551 29.712 10.5359L27.912 12.2039C27.8256 12.2856 27.7239 12.3493 27.6127 12.3915C27.5015 12.4336 27.3831 12.4533 27.2643 12.4494C27.1454 12.4455 27.0286 12.4181 26.9204 12.3687C26.8122 12.3194 26.7149 12.2491 26.634 12.1619L23.4 8.69995C23.3663 8.66378 23.3225 8.63861 23.2743 8.6277C23.2261 8.61679 23.1758 8.62065 23.1298 8.63878C23.0838 8.65691 23.0444 8.68847 23.0166 8.72935C22.9888 8.77023 22.974 8.81852 22.974 8.86795V25.938C22.9741 26.1746 22.8809 26.4017 22.7147 26.5701C22.5485 26.7386 22.3226 26.8348 22.086 26.8379Z" fill="#2EA9C5"/>
<path d="M13.158 1.31396H0.936C0.419061 1.31396 0 1.73303 0 2.24996V5.30996C0 5.8269 0.419061 6.24596 0.936 6.24596H13.158C13.6749 6.24596 14.094 5.8269 14.094 5.30996V2.24996C14.094 1.73303 13.6749 1.31396 13.158 1.31396Z" fill="#2EA9C5"/>
<path d="M13.158 10.686H0.936C0.419061 10.686 0 11.1051 0 11.622V14.682C0 15.199 0.419061 15.618 0.936 15.618H13.158C13.6749 15.618 14.094 15.199 14.094 14.682V11.622C14.094 11.1051 13.6749 10.686 13.158 10.686Z" fill="#2EA9C5"/>
<path d="M13.158 20.0581H0.936C0.419061 20.0581 0 20.4772 0 20.9941V24.0541C0 24.571 0.419061 24.9901 0.936 24.9901H13.158C13.6749 24.9901 14.094 24.571 14.094 24.0541V20.9941C14.094 20.4772 13.6749 20.0581 13.158 20.0581Z" fill="#2EA9C5"/>
</g>
<defs>
<clipPath id="clip0">
<rect width="30" height="26.838" fill="white"/>
</clipPath>
</defs>
</svg>
