<svg width="51" height="50" viewBox="0 0 51 50" fill="none" xmlns="http://www.w3.org/2000/svg">
<g clip-path="url(#clip0)">
<path d="M11.08 0H1.45C0.649187 0 0 0.649187 0 1.45V11.08C0 11.8808 0.649187 12.53 1.45 12.53H11.08C11.8808 12.53 12.53 11.8808 12.53 11.08V1.45C12.53 0.649187 11.8808 0 11.08 0Z" fill="#2EA9C5"/>
<path d="M47.65 0H18.71C17.3956 0 16.33 1.06556 16.33 2.38V10.15C16.33 11.4644 17.3956 12.53 18.71 12.53H47.65C48.9645 12.53 50.03 11.4644 50.03 10.15V2.38C50.03 1.06556 48.9645 0 47.65 0Z" fill="#2EA9C5"/>
<path d="M11.08 18.73H1.45C0.649187 18.73 0 19.3792 0 20.18V29.81C0 30.6108 0.649187 31.26 1.45 31.26H11.08C11.8808 31.26 12.53 30.6108 12.53 29.81V20.18C12.53 19.3792 11.8808 18.73 11.08 18.73Z" fill="#2EA9C5"/>
<path d="M47.65 18.73H18.71C17.3956 18.73 16.33 19.7955 16.33 21.11V28.88C16.33 30.1944 17.3956 31.26 18.71 31.26H47.65C48.9645 31.26 50.03 30.1944 50.03 28.88V21.11C50.03 19.7955 48.9645 18.73 47.65 18.73Z" fill="#2EA9C5"/>
<path d="M11.08 37.4702H1.45C0.649187 37.4702 0 38.1194 0 38.9202V48.5502C0 49.351 0.649187 50.0002 1.45 50.0002H11.08C11.8808 50.0002 12.53 49.351 12.53 48.5502V38.9202C12.53 38.1194 11.8808 37.4702 11.08 37.4702Z" fill="#2EA9C5"/>
<path d="M47.65 37.4702H18.71C17.3956 37.4702 16.33 38.5358 16.33 39.8502V47.6202C16.33 48.9347 17.3956 50.0002 18.71 50.0002H47.65C48.9645 50.0002 50.03 48.9347 50.03 47.6202V39.8502C50.03 38.5358 48.9645 37.4702 47.65 37.4702Z" fill="#2EA9C5"/>
</g>
<defs>
<clipPath id="clip0">
<rect width="50.03" height="50" fill="white"/>
</clipPath>
</defs>
</svg>
