<svg width="40" height="40" viewBox="0 0 40 40" fill="none" xmlns="http://www.w3.org/2000/svg">
<g clip-path="url(#clip0)">
<path d="M38.831 14.2598C38.64 14.0268 38.355 13.8908 38.056 13.8908H34.255C33.317 11.4168 32.095 8.99278 30.706 8.07778C25.901 4.91678 13.156 4.91678 8.35099 8.07778C6.96099 8.99378 5.74399 11.4208 4.80099 13.8908H0.999989C0.697989 13.8908 0.413989 14.0268 0.224989 14.2598C0.0349886 14.4918 -0.0410114 14.7988 0.0209886 15.0938L0.583989 17.8218C0.679989 18.2868 1.08999 18.6188 1.56299 18.6188H2.68899C1.60199 19.8728 1.07499 21.4518 1.06799 23.0318C1.06099 24.9838 1.80199 26.7478 3.15699 27.9958C3.17199 28.0088 3.18699 28.0178 3.20099 28.0308V31.8478C3.20099 32.6748 3.87299 33.3478 4.70099 33.3478H8.20699C9.03499 33.3478 9.70699 32.6748 9.70699 31.8478V30.3138H29.348V31.8478C29.348 32.6748 30.02 33.3478 30.848 33.3478H34.354C35.18 33.3478 35.854 32.6748 35.854 31.8478V28.1058C37.292 26.7888 37.979 24.9768 37.988 23.1678C37.994 21.5338 37.443 19.8968 36.292 18.6168H37.493C37.968 18.6168 38.378 18.2848 38.472 17.8188L39.036 15.0918C39.094 14.7988 39.021 14.4938 38.831 14.2598ZM9.99799 10.5828C13.828 8.06178 25.227 8.06178 29.055 10.5828C29.799 11.0708 30.756 13.0438 31.633 15.4598H7.42199C8.29699 13.0448 9.25399 11.0728 9.99799 10.5828ZM5.51199 23.4078C5.51199 21.7778 6.83399 20.4578 8.46299 20.4578C10.094 20.4578 11.414 21.7778 11.414 23.4078C11.414 25.0378 10.094 26.3588 8.46299 26.3588C6.83399 26.3588 5.51199 25.0378 5.51199 23.4078ZM30.631 26.3588C29.002 26.3588 27.68 25.0378 27.68 23.4078C27.68 21.7778 29.002 20.4578 30.631 20.4578C32.262 20.4578 33.582 21.7778 33.582 23.4078C33.582 25.0378 32.26 26.3588 30.631 26.3588Z" fill="#2EA9C5"/>
</g>
<defs>
<clipPath id="clip0">
<rect width="39.055" height="39.054" fill="white"/>
</clipPath>
</defs>
</svg>
