<svg width="23" height="23" viewBox="0 0 23 23" fill="none" xmlns="http://www.w3.org/2000/svg">
<path d="M11.5022 13.5665C11.1304 13.5665 10.8284 13.8685 10.8284 14.2403C10.8284 14.6121 11.1304 14.9141 11.5022 14.9141C11.874 14.9141 12.176 14.6121 12.176 14.2403C12.176 13.8685 11.874 13.5665 11.5022 13.5665Z" fill="#BEBEBE"/>
<path d="M18.2405 9.52344H4.76392C3.69478 9.52344 2.74243 10.4156 2.74243 11.5449V14.2402C2.74243 19.0702 6.6722 23 11.5022 23C16.3322 23 20.235 19.0702 20.235 14.2402C20.235 12.0539 20.6159 9.52344 18.2405 9.52344ZM12.176 16.1377V18.2832C12.176 18.6556 11.8746 18.957 11.5022 18.957C11.1298 18.957 10.8284 18.6556 10.8284 18.2832V16.1377C10.0454 15.8588 9.48071 15.1176 9.48071 14.2402C9.48071 13.1257 10.3872 12.2188 11.5022 12.2188C12.6167 12.2188 13.5237 13.1257 13.5237 14.2402C13.5237 15.1176 12.9586 15.8588 12.176 16.1377Z" fill="#BEBEBE"/>
<path d="M11.4965 0C7.40947 0 4.09338 3.32507 4.09338 7.41211V8.08594C6.46081 8.08594 5.76425 8.08594 8.12737 8.08594V7.41211C8.12737 5.55446 9.63885 4.04297 11.4965 4.04297C13.3542 4.04297 14.8657 5.55446 14.8657 7.41211V8.08594C17.2288 8.08594 16.5411 8.08594 18.9086 8.08594V7.41211C18.9086 3.32507 15.5835 0 11.4965 0Z" fill="#BEBEBE"/>
</svg>
