<svg width="25" height="25" viewBox="0 0 25 25" fill="none" xmlns="http://www.w3.org/2000/svg">
<path d="M24.408 21.383L18.6603 15.635C19.6369 14.0802 20.2036 12.2426 20.2036 10.2706C20.2036 4.69127 15.6807 0.168945 10.1016 0.168945C4.52253 0.168945 0 4.69127 0 10.2706C0 15.8501 4.52232 20.372 10.1016 20.372C12.2478 20.372 14.2356 19.701 15.8714 18.5609L21.5506 24.2406C21.9453 24.6348 22.4626 24.8311 22.9793 24.8311C23.4966 24.8311 24.0133 24.6348 24.4086 24.2406C25.1972 23.4511 25.1972 22.1723 24.408 21.383ZM10.1016 17.0992C6.33066 17.0992 3.27341 14.0421 3.27341 10.271C3.27341 6.49982 6.33066 3.44256 10.1016 3.44256C13.8728 3.44256 16.9298 6.49982 16.9298 10.271C16.9298 14.0421 13.8728 17.0992 10.1016 17.0992Z" fill="#2EA9C5"/>
</svg>
